<?xml version="1.0" encoding="UTF-8" standalone="no"?>
<svg
   width="100px"
   height="100px"
   viewBox="0 0 100 100"
   version="1.1"
   id="svg18"
   sodipodi:docname="icon.svg"
   inkscape:version="1.3.1 (9b9bdc1480, 2023-11-25, custom)"
   xml:space="preserve"
   xmlns:inkscape="http://www.inkscape.org/namespaces/inkscape"
   xmlns:sodipodi="http://sodipodi.sourceforge.net/DTD/sodipodi-0.dtd"
   xmlns:xlink="http://www.w3.org/1999/xlink"
   xmlns="http://www.w3.org/2000/svg"
   xmlns:svg="http://www.w3.org/2000/svg"
   xmlns:rdf="http://www.w3.org/1999/02/22-rdf-syntax-ns#"
   xmlns:cc="http://creativecommons.org/ns#"
   xmlns:dc="http://purl.org/dc/elements/1.1/"><metadata
     id="metadata22"><rdf:RDF><cc:Work
         rdf:about=""><dc:format>image/svg+xml</dc:format><dc:type
           rdf:resource="http://purl.org/dc/dcmitype/StillImage" /><dc:title>eclispe-che</dc:title></cc:Work></rdf:RDF></metadata><sodipodi:namedview
     pagecolor="#ffffff"
     bordercolor="#666666"
     borderopacity="1"
     objecttolerance="10"
     gridtolerance="10"
     guidetolerance="10"
     inkscape:pageopacity="0"
     inkscape:pageshadow="2"
     inkscape:window-width="2256"
     inkscape:window-height="1438"
     id="namedview20"
     showgrid="false"
     inkscape:pagecheckerboard="true"
     inkscape:zoom="9.44"
     inkscape:cx="43.061441"
     inkscape:cy="55.243644"
     inkscape:window-x="0"
     inkscape:window-y="0"
     inkscape:window-maximized="1"
     inkscape:current-layer="layer1"
     inkscape:showpageshadow="2"
     inkscape:deskcolor="#d1d1d1" /><!-- Generator: Sketch 45.2 (43514) - http://www.bohemiancoding.com/sketch --><title
     id="title2">eclispe-che</title><desc
     id="desc4">Created with Sketch.</desc><defs
     id="defs7"><path
       d="M50.0004412,4.04252804e-14 C22.3871247,4.04252804e-14 0,22.3848726 0,49.9995588 C0,77.6133626 22.3871247,100 50.0004412,100 C77.6137577,100 100,77.6133626 100,49.9995588 C100,22.3848726 77.6128753,3.55271368e-14 50.0004412,4.04252804e-14 Z"
       id="path-1" /><linearGradient
       id="paint0_linear_144_5750"
       x1="66.7376"
       y1="49.0992"
       x2="200.848"
       y2="231.126"
       gradientUnits="userSpaceOnUse"><stop
         stop-color="#00FAFF"
         id="stop23" /><stop
         offset="1"
         stop-color="#8BFF95"
         id="stop24" /></linearGradient><linearGradient
       inkscape:collect="always"
       xlink:href="#paint0_linear_144_5750"
       id="linearGradient1"
       gradientUnits="userSpaceOnUse"
       x1="66.7376"
       y1="49.0992"
       x2="200.848"
       y2="231.126" /><linearGradient
       inkscape:collect="always"
       xlink:href="#paint0_linear_144_5750"
       id="linearGradient2"
       gradientUnits="userSpaceOnUse"
       x1="66.7376"
       y1="49.0992"
       x2="200.848"
       y2="231.126" /><linearGradient
       inkscape:collect="always"
       xlink:href="#paint0_linear_144_5750"
       id="linearGradient3"
       gradientUnits="userSpaceOnUse"
       x1="66.7376"
       y1="49.0992"
       x2="200.848"
       y2="231.126" /><linearGradient
       inkscape:collect="always"
       xlink:href="#paint0_linear_144_5750"
       id="linearGradient4"
       gradientUnits="userSpaceOnUse"
       x1="66.7376"
       y1="49.0992"
       x2="200.848"
       y2="231.126" /><linearGradient
       inkscape:collect="always"
       xlink:href="#paint0_linear_144_5750"
       id="linearGradient5"
       gradientUnits="userSpaceOnUse"
       x1="66.7376"
       y1="49.0992"
       x2="200.848"
       y2="231.126" /><linearGradient
       inkscape:collect="always"
       xlink:href="#paint0_linear_144_5750"
       id="linearGradient6"
       gradientUnits="userSpaceOnUse"
       x1="66.7376"
       y1="49.0992"
       x2="200.848"
       y2="231.126" /></defs><g
     inkscape:groupmode="layer"
     id="layer1"
     inkscape:label="BACKGROUND"
     style="display:inline"><g
       style="fill:#ffffff;fill-opacity:1;fill-rule:evenodd;stroke:none;stroke-width:1;stroke-opacity:1"
       id="Page-1"><g
         id="eclispe-che"
         style="fill:#ffffff;fill-opacity:1;stroke:none;stroke-opacity:1"><g
           id="path3023-path"
           style="fill:#ffffff;fill-opacity:1;stroke:none;stroke-opacity:1"><use
             xlink:href="#path-1"
             id="use9"
             style="display:inline;fill:#ffffff;fill-opacity:1;fill-rule:evenodd;stroke:none;stroke-opacity:1"
             x="0"
             y="0"
             width="100%"
             height="100%" /><path
             d="M 50.000441,0.5 C 22.662621,0.5 0.5,22.661661 0.5,49.999559 0.5,77.337051 22.663098,99.5 50.000441,99.5 77.337613,99.5 99.5,77.337222 99.5,49.999559 99.5,22.661796 77.337514,0.5 50.000441,0.5 Z"
             id="path11"
             style="display:inline;fill:#000000;fill-opacity:1;stroke:none;stroke-width:1;stroke-opacity:1"
             inkscape:connector-curvature="0" /></g></g></g></g><g
     inkscape:groupmode="layer"
     id="layer2"
     inkscape:label="PLACE LOGO HERE"
     style="display:inline"><g
       style="fill:none"
       id="g1"
       transform="matrix(0.36129432,0,0,0.36129432,0.13567476,-0.25884713)"><path
         d="m 164.514,69.4544 c 0.003,3.4339 1.373,6.7262 3.81,9.1543 2.436,2.4282 5.739,3.7938 9.184,3.7971 3.446,-0.0033 6.749,-1.3689 9.185,-3.7971 2.436,-2.4281 3.806,-5.7204 3.81,-9.1543 -0.004,-3.434 -1.374,-6.7263 -3.81,-9.1544 -2.436,-2.4282 -5.739,-3.7938 -9.185,-3.7971 -3.445,0.0033 -6.748,1.3689 -9.184,3.7971 -2.437,2.4281 -3.807,5.7204 -3.81,9.1544 z"
         fill="#ffffff"
         id="path11-7" /><path
         d="m 86.293,208.74 c 0.0033,3.433 1.3734,6.726 3.8096,9.154 2.4362,2.428 5.7394,3.794 9.1847,3.797 3.4457,-0.003 6.7487,-1.369 9.1847,-3.797 2.436,-2.428 3.806,-5.721 3.81,-9.154 -0.004,-3.434 -1.374,-6.727 -3.81,-9.155 -2.436,-2.428 -5.739,-3.794 -9.1847,-3.797 -3.4453,0.003 -6.7485,1.369 -9.1847,3.797 -2.4362,2.428 -3.8063,5.721 -3.8096,9.155 z"
         fill="#ffffff"
         id="path12" /><path
         d="m 163.555,139.097 c 0.003,3.434 1.373,6.726 3.809,9.154 2.437,2.428 5.74,3.794 9.185,3.797 3.445,-0.003 6.749,-1.369 9.185,-3.797 2.436,-2.428 3.806,-5.72 3.809,-9.154 -0.003,-3.434 -1.373,-6.726 -3.809,-9.154 -2.436,-2.429 -5.74,-3.794 -9.185,-3.797 -3.445,0.003 -6.748,1.368 -9.185,3.797 -2.436,2.428 -3.806,5.72 -3.809,9.154 z"
         fill="#ffffff"
         id="path13" /><path
         d="m 46.1914,139.097 c 0.0033,3.434 1.3734,6.726 3.8096,9.154 2.4362,2.428 5.7395,3.794 9.1848,3.797 3.4453,-0.003 6.7486,-1.369 9.1848,-3.797 2.4362,-2.428 3.8063,-5.72 3.8096,-9.154 -0.0033,-3.434 -1.3734,-6.726 -3.8096,-9.154 -2.4362,-2.429 -5.7395,-3.794 -9.1848,-3.797 -3.4453,0.003 -6.7486,1.368 -9.1848,3.797 -2.4362,2.428 -3.8063,5.72 -3.8096,9.154 z"
         fill="#ffffff"
         id="path14" /><path
         d="m 110.1,76.7265 c 0.537,-0.8467 1.273,-1.5496 2.145,-2.0472 0.872,-0.4976 1.854,-0.7748 2.858,-0.8073 h 7.616 c 1.005,0.0303 1.987,0.3066 2.859,0.8044 0.873,0.4978 1.609,1.2019 2.144,2.0501 1.192,1.7372 2.791,3.1583 4.659,4.1401 1.868,0.9818 3.948,1.4947 6.059,1.4942 1.933,0.0035 3.841,-0.4247 5.585,-1.253 1.745,-0.8284 3.281,-2.0358 4.496,-3.5336 1.231,-1.5123 2.105,-3.2811 2.557,-5.1756 0.453,-1.8944 0.472,-3.8661 0.056,-5.7689 -0.526,-2.4793 -1.775,-4.7484 -3.591,-6.5225 -1.816,-1.7741 -4.117,-2.9743 -6.614,-3.4498 -2.553,-0.4913 -5.195,-0.2102 -7.587,0.8072 -2.391,1.0174 -4.422,2.7246 -5.833,4.9019 -0.56,0.7971 -1.311,1.4423 -2.184,1.8776 -0.874,0.4353 -1.842,0.6468 -2.818,0.6155 h -7.267 c -0.975,0.0258 -1.941,-0.1882 -2.814,-0.623 -0.872,-0.4348 -1.624,-1.0771 -2.188,-1.8701 -1.425,-2.1536 -3.461,-3.8351 -5.849,-4.8298 -2.388,-0.9947 -5.0198,-1.2574 -7.5583,-0.7546 -2.4961,0.4786 -4.7954,1.6797 -6.6105,3.4533 -1.8151,1.7736 -3.0655,4.041 -3.595,6.5189 -0.409,1.9032 -0.3866,3.8733 0.0657,5.7668 0.4522,1.8934 1.3228,3.6623 2.5482,5.1777 1.2184,1.4968 2.7569,2.7033 4.5031,3.5314 1.7462,0.8282 3.656,1.257 5.5898,1.2553 2.131,-0.0052 4.228,-0.5333 6.106,-1.5376 1.878,-1.0044 3.48,-2.4542 4.662,-4.2214 z"
         fill="url(#paint0_linear_144_5750)"
         id="path15"
         style="fill:url(#linearGradient1)" /><path
         d="m 129.656,111.628 c 0.537,-0.846 1.273,-1.549 2.145,-2.047 0.872,-0.498 1.853,-0.775 2.858,-0.807 h 7.616 c 1.005,0.03 1.987,0.306 2.859,0.804 0.873,0.498 1.609,1.202 2.144,2.05 1.192,1.737 2.791,3.159 4.659,4.14 1.868,0.982 3.948,1.495 6.059,1.495 1.932,0.003 3.841,-0.425 5.585,-1.253 1.745,-0.829 3.281,-2.036 4.496,-3.534 1.231,-1.512 2.105,-3.281 2.557,-5.176 0.453,-1.894 0.472,-3.866 0.056,-5.769 -0.526,-2.4788 -1.775,-4.7479 -3.591,-6.522 -1.816,-1.7741 -4.117,-2.9742 -6.614,-3.4497 -2.553,-0.4914 -5.195,-0.2102 -7.587,0.8072 -2.391,1.0173 -4.422,2.7245 -5.833,4.9019 -0.56,0.797 -1.311,1.4423 -2.184,1.8775 -0.874,0.4353 -1.842,0.6468 -2.818,0.6155 h -7.267 c -0.975,0.0258 -1.941,-0.1882 -2.814,-0.623 -0.872,-0.4348 -1.624,-1.0771 -2.188,-1.87 -1.425,-2.1537 -3.461,-3.8352 -5.849,-4.8299 -2.388,-0.9947 -5.02,-1.2574 -7.558,-0.7546 -2.496,0.4786 -4.796,1.6797 -6.611,3.4533 -1.815,1.7736 -3.065,4.041 -3.595,6.5188 -0.409,1.903 -0.386,3.873 0.066,5.767 0.452,1.893 1.323,3.662 2.548,5.178 1.219,1.496 2.757,2.703 4.503,3.531 1.746,0.828 3.656,1.257 5.59,1.255 2.131,-0.005 4.228,-0.533 6.106,-1.537 1.878,-1.005 3.479,-2.454 4.662,-4.222 z"
         fill="url(#paint1_linear_144_5750)"
         id="path16"
         style="fill:url(#linearGradient2)" /><path
         d="m 92.6487,179.224 c -0.8721,0.498 -1.6086,1.2 -2.1452,2.047 -1.1827,1.767 -2.7837,3.217 -4.6617,4.222 -1.878,1.004 -3.9752,1.532 -6.1065,1.537 -1.9338,0.002 -3.8436,-0.427 -5.5898,-1.255 -1.7462,-0.828 -3.2847,-2.035 -4.5031,-3.531 -1.2254,-1.516 -2.096,-3.285 -2.5482,-5.178 -0.4523,-1.894 -0.4747,-3.864 -0.0657,-5.767 0.5295,-2.478 1.7799,-4.745 3.595,-6.519 1.8151,-1.774 4.1144,-2.975 6.6105,-3.453 2.5385,-0.503 5.1698,-0.24 7.5579,0.754 2.388,0.995 4.4244,2.677 5.8491,4.83 0.5644,0.793 1.3161,1.435 2.1886,1.87 0.8725,0.435 1.839,0.649 2.8141,0.623 h 7.2663 c 0.976,0.032 1.945,-0.18 2.818,-0.615 0.873,-0.435 1.624,-1.081 2.185,-1.878 1.41,-2.177 3.441,-3.884 5.833,-4.902 2.391,-1.017 5.033,-1.298 7.586,-0.807 2.498,0.476 4.799,1.676 6.614,3.45 0.777,0.759 1.45,1.608 2.007,2.526 0.537,0.671 1.215,1.218 1.987,1.603 0.873,0.435 1.839,0.649 2.814,0.623 h 7.267 c 0.976,0.032 1.944,-0.18 2.818,-0.615 0.873,-0.435 1.624,-1.081 2.184,-1.878 1.411,-2.177 3.442,-3.884 5.833,-4.902 2.392,-1.017 5.034,-1.298 7.587,-0.807 2.497,0.476 4.798,1.676 6.614,3.45 1.816,1.774 3.065,4.043 3.591,6.522 0.416,1.903 0.397,3.875 -0.056,5.769 -0.452,1.895 -1.326,3.664 -2.557,5.176 -1.215,1.498 -2.751,2.705 -4.496,3.533 -1.744,0.829 -3.652,1.257 -5.585,1.254 -2.111,0 -4.191,-0.513 -6.059,-1.495 -1.868,-0.982 -3.467,-2.403 -4.659,-4.14 -0.535,-0.848 -1.271,-1.552 -2.144,-2.05 -0.872,-0.498 -1.854,-0.774 -2.859,-0.804 h -7.616 c -1.004,0.032 -1.986,0.309 -2.858,0.807 -0.872,0.498 -1.608,1.2 -2.145,2.047 -1.182,1.767 -2.784,3.217 -4.662,4.222 -1.878,1.004 -3.975,1.532 -6.106,1.537 -1.934,0.002 -3.844,-0.427 -5.59,-1.255 -1.746,-0.828 -3.284,-2.035 -4.503,-3.531 -0.434,-0.537 -0.823,-1.105 -1.165,-1.7 -0.454,-0.527 -0.997,-0.975 -1.606,-1.323 -0.873,-0.498 -1.855,-0.774 -2.859,-0.804 h -7.6169 c -1.0043,0.032 -1.9854,0.309 -2.8574,0.807 z"
         fill="url(#paint2_linear_144_5750)"
         id="path17"
         style="fill:url(#linearGradient3)" /><path
         d="m 151.356,214.046 c -0.872,0.497 -1.609,1.2 -2.145,2.047 -1.183,1.767 -2.784,3.217 -4.662,4.221 -1.878,1.005 -3.975,1.533 -6.106,1.538 -1.934,0.002 -3.844,-0.427 -5.59,-1.255 -1.746,-0.829 -3.285,-2.035 -4.503,-3.532 -1.226,-1.515 -2.096,-3.284 -2.549,-5.178 -0.452,-1.893 -0.474,-3.863 -0.065,-5.766 0.529,-2.478 1.78,-4.746 3.595,-6.519 1.815,-1.774 4.114,-2.975 6.61,-3.453 2.539,-0.503 5.17,-0.241 7.558,0.754 2.388,0.995 4.425,2.676 5.849,4.83 0.565,0.793 1.316,1.435 2.189,1.87 0.872,0.435 1.839,0.649 2.814,0.623 h 7.266 c 0.976,0.031 1.945,-0.18 2.818,-0.615 0.874,-0.436 1.625,-1.081 2.185,-1.878 1.41,-2.177 3.442,-3.885 5.833,-4.902 2.391,-1.017 5.034,-1.298 7.587,-0.807 2.497,0.475 4.798,1.675 6.614,3.45 1.815,1.774 3.065,4.043 3.591,6.522 0.415,1.903 0.396,3.875 -0.056,5.769 -0.453,1.895 -1.327,3.663 -2.558,5.176 -1.214,1.497 -2.751,2.705 -4.495,3.533 -1.744,0.829 -3.653,1.257 -5.585,1.253 -2.112,0.001 -4.192,-0.512 -6.059,-1.494 -1.868,-0.982 -3.467,-2.403 -4.659,-4.14 -0.535,-0.848 -1.271,-1.552 -2.144,-2.05 -0.872,-0.498 -1.854,-0.774 -2.859,-0.805 h -7.617 c -1.004,0.033 -1.985,0.31 -2.857,0.808 z"
         fill="url(#paint3_linear_144_5750)"
         id="path18"
         style="fill:url(#linearGradient4)" /><path
         d="m 204.615,139.097 c 0.003,3.433 1.373,6.726 3.809,9.154 2.436,2.428 5.74,3.794 9.185,3.797 3.445,-0.003 6.749,-1.369 9.185,-3.797 2.436,-2.428 3.806,-5.721 3.809,-9.154 -0.003,-3.434 -1.373,-6.727 -3.809,-9.155 -2.436,-2.428 -5.74,-3.794 -9.185,-3.797 -3.445,0.003 -6.749,1.369 -9.185,3.797 -2.436,2.428 -3.806,5.721 -3.809,9.155 z"
         fill="url(#paint4_linear_144_5750)"
         id="path19"
         style="fill:url(#linearGradient5)" /><path
         d="m 89.1434,148.251 c -2.4362,-2.428 -3.8064,-5.721 -3.8097,-9.154 0.0033,-3.434 1.3735,-6.727 3.8097,-9.155 2.4362,-2.428 5.7394,-3.794 9.1847,-3.797 3.4449,0.003 6.7489,1.369 9.1849,3.797 2.436,2.428 3.806,5.721 3.81,9.155 -0.004,3.433 -1.374,6.726 -3.81,9.154 -2.436,2.428 -5.74,3.794 -9.1849,3.797 -3.4453,-0.003 -6.7485,-1.369 -9.1847,-3.797 z"
         fill="url(#paint5_linear_144_5750)"
         id="path20"
         style="fill:url(#linearGradient6)" /><path
         d="m 184.028,104.275 c 0.003,3.434 1.373,6.726 3.809,9.154 2.437,2.428 5.74,3.794 9.185,3.797 3.446,-0.003 6.749,-1.369 9.185,-3.797 2.436,-2.428 3.806,-5.72 3.81,-9.154 -0.004,-3.434 -1.374,-6.7266 -3.81,-9.1547 -2.436,-2.4282 -5.739,-3.7938 -9.185,-3.7971 -3.445,0.0033 -6.748,1.3689 -9.185,3.7971 -2.436,2.4281 -3.806,5.7207 -3.809,9.1547 z"
         fill="#ffffff"
         id="path21" /><path
         d="m 66.7781,104.275 c 0.0033,3.434 1.3734,6.726 3.8096,9.154 2.4362,2.428 5.7394,3.794 9.1847,3.797 3.4454,-0.003 6.7486,-1.369 9.1848,-3.797 2.4362,-2.428 3.8063,-5.72 3.8096,-9.154 -0.0033,-3.434 -1.3734,-6.7266 -3.8096,-9.1547 -2.4362,-2.4282 -5.7394,-3.7938 -9.1848,-3.7971 -3.4453,0.0033 -6.7485,1.3689 -9.1847,3.7971 -2.4362,2.4281 -3.8063,5.7207 -3.8096,9.1547 z"
         fill="#ffffff"
         id="path22" /><path
         d="m 184.028,173.918 c 0.003,3.434 1.373,6.726 3.809,9.155 2.437,2.428 5.74,3.793 9.185,3.797 3.446,-0.004 6.749,-1.369 9.185,-3.797 2.436,-2.429 3.806,-5.721 3.81,-9.155 -0.004,-3.434 -1.374,-6.726 -3.81,-9.154 -2.436,-2.428 -5.739,-3.794 -9.185,-3.797 -3.445,0.003 -6.748,1.369 -9.185,3.797 -2.436,2.428 -3.806,5.72 -3.809,9.154 z"
         fill="#ffffff"
         id="path23" /></g></g></svg>
